<svg width="168" height="44" viewBox="0 0 168 44" fill="none" xmlns="http://www.w3.org/2000/svg">
<g clip-path="url(#clip0_93_23)">
<path d="M39.9163 10.7634C31.3824 16.2237 31.8874 8.37669 31.8874 8.37669L27.2525 15.9005C23.6277 6.3132 18.2164 0.66818 18.2164 0.66818C17.7114 4.7057 15.5556 4.01883 13.7662 3.55995C11.974 3.10108 6.83694 0.440186 6.83694 0.440186C6.83694 0.440186 13.3535 9.66096 4.31457 9.66096C4.31457 9.66096 10.6003 16.4979 16.0144 19.3406L4.31457 18.2843C4.31457 18.2843 6.97547 21.1299 5.78355 22.4142C4.58875 23.7014 0 27.1444 0 27.1444C0 27.1444 11.241 27.6032 7.47763 35.0347C7.47763 35.0347 20.7821 25.8139 24.7302 37.3291L27.0332 34.5152L30.6263 33.1559L30.0519 32.9452C29.8297 31.9611 29.5729 31.0376 29.2872 30.1747L30.5916 30.6566C30.8947 31.3926 31.1544 32.1285 31.3968 32.8673L32.7157 32.368C32.7042 31.9669 32.6898 31.508 32.6782 30.9712C32.4877 23.4676 42.7157 19.762 42.7157 19.762C35.4199 18.7057 39.9163 10.7692 39.9163 10.7692V10.7634ZM26.5483 24.2843C25.2208 22.1718 24.0548 21.0434 23.8586 20.8615C25.1111 21.9986 26.202 23.2252 27.1515 24.5066L26.5455 24.2843H26.5483ZM28.7388 28.648C28.3492 27.6581 27.9336 26.7634 27.5152 25.964L28.3579 26.2757C28.9293 27.1905 29.4372 28.1256 29.8903 29.0722L28.7388 28.648Z" fill="#69459D"/>
<path d="M36.834 37.0722C36.2193 35.2107 35.4459 33.2713 34.4733 31.3088C33.3391 29.0231 31.9307 26.7085 30.1876 24.4632C27.8846 21.4935 24.9928 18.6421 21.3651 16.1227C19.746 14.9971 17.9798 13.9408 16.0519 12.9683C16.0519 12.9683 18.2366 14.518 20.5859 17.8687C22.6234 20.772 24.7821 25.026 25.7576 30.8009C26.176 33.2771 26.3752 36.0332 26.2511 39.0808L30.8485 40.7662C30.8485 40.7662 30.8485 40.7518 30.8485 40.746C30.8514 40.3103 30.8485 39.8802 30.8398 39.4589L32.1558 39.9437L33.0361 40.267C33.0938 40.7258 33.1429 41.1789 33.1833 41.6205L38.4675 43.5599C38.1183 41.6003 37.6017 39.3983 36.834 37.0722ZM26.5483 24.2843C25.2208 22.1717 24.0548 21.0433 23.8586 20.8615C25.1111 21.9986 26.202 23.2251 27.1515 24.5065L26.5454 24.2843H26.5483ZM27.5123 25.9639L28.355 26.2756C28.9264 27.1905 29.4343 28.1255 29.8874 29.0722L28.7359 28.6479C28.3463 27.658 27.9307 26.7634 27.5123 25.9639ZM29.2872 30.1717L30.5916 30.6537C30.9841 31.609 31.3218 32.5671 31.6162 33.5195L30.0491 32.9423C29.8268 31.9582 29.57 31.0346 29.2843 30.1717H29.2872ZM30.7763 38.013C30.6926 36.7258 30.5397 35.5108 30.3377 34.3737L32.0375 35C32.3723 36.2814 32.6291 37.5483 32.8254 38.7691L30.7763 38.013Z" fill="#E3FA72"/>
<path d="M54.0404 17.0029C54.0404 12.6133 57.3247 9.29724 61.6537 9.29724C65.241 9.29724 68.1039 11.6724 68.7879 15.1703H65.5902C64.987 13.43 63.5123 12.342 61.6537 12.342C59.1573 12.342 57.2727 14.3535 57.2727 17.0058C57.2727 19.658 59.1573 21.6349 61.6537 21.6349C63.5931 21.6349 65.088 20.4632 65.619 18.5959H68.8341C68.1674 22.241 65.3045 24.6796 61.6537 24.6796C57.3247 24.6796 54.0404 21.3607 54.0404 17.0058V17.0029Z" fill="#E3FA72"/>
<path d="M79.4083 21.5628H73.5411L72.5281 24.3593H69.1428L74.9206 9.61475H77.9336L83.899 24.3593H80.4357L79.4055 21.5628H79.4083ZM74.5368 18.7836H78.4069L76.4617 13.5109L74.5368 18.7836Z" fill="#E3FA72"/>
<path d="M91.0101 19.3261H88.9639V24.3593H85.7749V9.61475H91.7258C94.6782 9.61475 96.8802 11.6494 96.8802 14.4921C96.8802 16.4199 95.824 17.9957 94.1934 18.7836L97.4546 24.3593H93.8903L91.0101 19.3261ZM88.9639 16.3795H91.5152C92.8485 16.3795 93.6479 15.5772 93.6479 14.4719C93.6479 13.3665 92.8514 12.5614 91.5152 12.5614H88.9639V16.3795Z" fill="#E3FA72"/>
<path d="M98.8745 19.5801H102.089C102.089 21.0058 103.267 21.6926 104.571 21.6926C105.772 21.6926 106.947 21.0577 106.947 19.9581C106.947 18.8586 105.602 18.5007 104.003 18.1284C101.781 17.5801 99.0794 16.9336 99.0794 13.759C99.0794 10.9307 101.163 9.33765 104.427 9.33765C107.691 9.33765 109.743 11.1472 109.743 14.0851H106.592C106.592 12.8153 105.544 12.2208 104.352 12.2208C103.319 12.2208 102.271 12.6594 102.271 13.6234C102.271 14.6623 103.553 14.974 105.114 15.3492C107.362 15.9177 110.185 16.619 110.185 19.9235C110.185 23.228 107.648 24.6537 104.595 24.6537C101.209 24.6537 98.8773 22.7518 98.8773 19.583L98.8745 19.5801Z" fill="#E3FA72"/>
<path d="M135.201 9.61475L130.652 24.3593H127.815L124.522 16.0938L121.325 24.3593H118.488L113.836 9.61475H117.221L120.115 19.4098L123.988 9.76193H125.065L129.042 19.407L131.873 9.61475H135.203H135.201Z" fill="#E3FA72"/>
<path d="M137.195 9.61475H140.384V24.3593H137.195V9.61475Z" fill="#E3FA72"/>
<path d="M153.931 12.5758H149.833V24.3594H146.644V12.5758H142.543V9.61768H153.931V12.5758Z" fill="#E3FA72"/>
<path d="M168 9.61475V24.3593H164.811V18.2641H159.261V24.3593H156.072V9.61475H159.261V15.2944H164.811V9.61475H168Z" fill="#E3FA72"/>
<path d="M54.0404 34.9537C54.0404 30.5641 57.3247 27.248 61.6537 27.248C65.241 27.248 68.1039 29.6232 68.7879 33.1211H65.5902C64.987 31.3808 63.5123 30.2928 61.6537 30.2928C59.1573 30.2928 57.2727 32.3043 57.2727 34.9566C57.2727 37.6088 59.1573 39.5857 61.6537 39.5857C63.5931 39.5857 65.088 38.414 65.619 36.5467H68.8341C68.1674 40.1918 65.3045 42.6304 61.6537 42.6304C57.3247 42.6304 54.0404 39.3115 54.0404 34.9566V34.9537Z" fill="#69459D"/>
<path d="M83.0621 27.5657V42.3103H79.873V36.215H74.3233V42.3103H71.1342V27.5657H74.3233V33.2453H79.873V27.5657H83.0621Z" fill="#69459D"/>
<path d="M95.2958 39.3492V42.3103H86.4473V27.5657H89.6364V39.3492H95.2958Z" fill="#69459D"/>
<path d="M96.026 34.9365C96.026 30.5584 99.394 27.2424 103.893 27.2424C108.393 27.2424 111.726 30.5411 111.726 34.9365C111.726 39.3319 108.375 42.6306 103.893 42.6306C99.4113 42.6306 96.026 39.3146 96.026 34.9365ZM108.496 34.9365C108.496 32.2612 106.522 30.2525 103.896 30.2525C101.27 30.2525 99.2612 32.2814 99.2612 34.9365C99.2612 37.5916 101.27 39.6205 103.896 39.6205C106.522 39.6205 108.496 37.6118 108.496 34.9365Z" fill="#69459D"/>
<path d="M123.319 39.3406V42.3075H114.234V27.5629H123.085V30.5095H117.423V33.4215H122.537V36.3103H117.423V39.3406H123.316H123.319Z" fill="#69459D"/>
</g>
<defs>
<clipPath id="clip0_93_23">
<rect width="168" height="43.1198" fill="white" transform="translate(0 0.440186)"/>
</clipPath>
</defs>
</svg>
