<svg width="31" height="32" viewBox="0 0 31 32" fill="none" xmlns="http://www.w3.org/2000/svg">
<path d="M28.9684 7.84524C22.7751 11.808 23.1416 6.11313 23.1416 6.11313L19.7779 11.5734C17.1473 4.6156 13.2202 0.518848 13.2202 0.518848C12.8537 3.44899 11.2891 2.95051 9.99054 2.61749C8.68989 2.28447 4.96176 0.353386 4.96176 0.353386C4.96176 0.353386 9.69103 7.04516 3.13121 7.04516C3.13121 7.04516 7.69293 12.0069 11.6221 14.07L3.13121 13.3034C3.13121 13.3034 5.06229 15.3685 4.19728 16.3006C3.33018 17.2347 0 19.7334 0 19.7334C0 19.7334 8.1579 20.0664 5.42673 25.4596C5.42673 25.4596 15.0822 18.7678 17.9474 27.1247L19.6187 25.0826L22.2263 24.0961L21.8095 23.9432C21.6483 23.229 21.4619 22.5588 21.2545 21.9325L22.2012 22.2823C22.4211 22.8164 22.6096 23.3505 22.7856 23.8867L23.7427 23.5243C23.7343 23.2332 23.7239 22.9002 23.7155 22.5106C23.5773 17.065 31 14.3757 31 14.3757C25.7052 13.6092 28.9684 7.84943 28.9684 7.84943V7.84524ZM19.2669 17.6578C18.3034 16.1246 17.4573 15.3057 17.3148 15.1737C18.2238 15.999 19.0155 16.8891 19.7046 17.819L19.2648 17.6578H19.2669ZM20.8566 20.8246C20.5738 20.1062 20.2722 19.4569 19.9685 18.8767L20.5801 19.1029C20.9948 19.7669 21.3634 20.4455 21.6923 21.1325L20.8566 20.8246Z" fill="#69459D"/>
<path d="M26.7315 26.9383C26.2854 25.5873 25.7241 24.1799 25.0182 22.7556C24.1951 21.0968 23.173 19.4171 21.908 17.7876C20.2366 15.6324 18.138 13.5631 15.5052 11.7346C14.3303 10.9178 13.0484 10.1512 11.6494 9.44539C11.6494 9.44539 13.2349 10.5701 14.9397 13.0018C16.4184 15.1088 17.9851 18.196 18.693 22.387C18.9967 24.1841 19.1412 26.1843 19.0511 28.396L22.3876 29.6192C22.3876 29.6192 22.3876 29.6087 22.3876 29.6045C22.3897 29.2882 22.3876 28.9762 22.3813 28.6704L23.3364 29.0222L23.9752 29.2568C24.0171 29.5898 24.0527 29.9187 24.082 30.2391L27.917 31.6466C27.6635 30.2245 27.2886 28.6264 26.7315 26.9383ZM19.2669 17.6577C18.3034 16.1246 17.4573 15.3057 17.3148 15.1737C18.2238 15.9989 19.0155 16.8891 19.7046 17.819L19.2648 17.6577H19.2669ZM19.9664 18.8767L20.578 19.1029C20.9927 19.7669 21.3613 20.4455 21.6902 21.1324L20.8545 20.8246C20.5717 20.1062 20.2701 19.4569 19.9664 18.8767ZM21.2545 21.9304L22.2012 22.2802C22.4861 22.9735 22.7311 23.6688 22.9447 24.36L21.8075 23.9411C21.6462 23.2269 21.4598 22.5567 21.2524 21.9304H21.2545ZM22.3353 27.6211C22.2745 26.6869 22.1635 25.8052 22.0169 24.98L23.2505 25.4344C23.4935 26.3644 23.6799 27.2838 23.8223 28.1698L22.3353 27.6211Z" fill="#E3FA72"/>
</svg>
