<svg width="112" height="100" viewBox="0 0 112 100" fill="none" xmlns="http://www.w3.org/2000/svg">
<path d="M105.919 50C105.919 63.1282 100.704 75.7189 91.4209 85.002C82.1378 94.285 69.5472 99.5 56.4189 99.5C43.2907 99.5 30.7005 94.285 21.4175 85.002C12.1344 75.7189 6.91895 63.1282 6.91895 50C6.91895 36.8718 12.1344 24.2811 21.4175 14.998C30.7005 5.715 43.2907 0.5 56.4189 0.5C69.5472 0.5 82.1378 5.715 91.4209 14.998C100.704 24.2811 105.919 36.8718 105.919 50Z" fill="#C4A0F7"/>
<path d="M73 72.0005H7.30769C4.36723 72.0005 2 69.6393 2 66.7065V17.2944C2 14.3616 4.36723 12.0005 7.30769 12.0005H88.6923C91.6328 12.0005 94 14.3616 94 17.2944L94 42.0005" stroke="#3A3640" stroke-width="4" stroke-linejoin="round"/>
<path d="M2 24.0005H94" stroke="#3A3640" stroke-width="4"/>
<path d="M94 36.0005H2" stroke="#3A3640" stroke-width="4"/>
<path d="M72 60.0005H66V48.0005H78" stroke="#3A3640" stroke-width="4" stroke-linejoin="round"/>
<path d="M18 60.0005H38" stroke="#3A3640" stroke-width="4"/>
<path d="M109.535 54.667C103.662 54.667 98.0465 52.2537 93.9976 48.0005C89.8406 52.2713 84.3588 54.6318 78.466 54.667C74.7623 82.8154 93.9985 88.0005 93.9985 88.0005C93.9985 88.0005 113.235 82.8154 109.535 54.667Z" stroke="#3A3640" stroke-width="4" stroke-linejoin="round"/>
</svg>
