<svg width="129" height="128" viewBox="0 0 129 128" fill="none" xmlns="http://www.w3.org/2000/svg">
<path d="M127.504 64C127.504 77.1282 122.289 89.7189 113.006 99.002C103.723 108.285 91.1322 113.5 78.004 113.5C64.8758 113.5 52.2851 108.285 43.0021 99.002C33.719 89.7189 28.504 77.1282 28.504 64C28.504 50.8718 33.719 38.2811 43.0021 28.998C52.2851 19.715 64.8758 14.5 78.004 14.5C91.1322 14.5 103.723 19.715 113.006 28.998C122.289 38.2811 127.504 50.8718 127.504 64Z" fill="#E3FA72"/>
<path d="M4.92028 78.1626C4.20545 77.4271 3.81206 76.4377 3.82669 75.4121L3.82669 54.7256C3.8267 53.6647 4.24812 52.6476 4.99826 51.8975L6.48636 50.4092C6.9053 49.9903 7.41207 49.6699 7.97005 49.4707C8.52803 49.2715 9.12329 49.1988 9.7128 49.2578L27.8267 51.0688L55.8267 49.0688L83.8267 51.0688L102.675 49.1841C103.427 49.1088 104.186 49.2483 104.862 49.5864L105.616 49.9624C106.28 50.2946 106.839 50.8051 107.229 51.437C107.62 52.0689 107.827 52.7972 107.827 53.54V75.4111C107.827 76.472 107.405 77.4896 106.655 78.2397C106.083 78.7958 105.351 79.159 104.562 79.2788L93.8267 81.0684H17.8267L7.09111 79.2788C6.26875 79.1417 5.50978 78.7521 4.92028 78.1626Z" stroke="#3A3640" stroke-width="4" stroke-linecap="round" stroke-linejoin="round"/>
<path d="M33.8267 71.0688L55.8267 73.0688L77.8267 71.0688" stroke="#3A3640" stroke-width="4" stroke-linecap="round" stroke-linejoin="round"/>
<path d="M11.8267 59.0688L13.8267 69.0688L23.8267 71.0688L21.8267 61.0688L11.8267 59.0688Z" stroke="#3A3640" stroke-width="4" stroke-linecap="round" stroke-linejoin="round"/>
<path d="M17.8267 51.0689L27.8803 37.673C29.1358 36.0003 30.9962 34.8861 33.0633 34.5685L54.6112 31.256C55.4168 31.1321 56.2365 31.1321 57.0421 31.256L78.59 34.5685C80.6571 34.8861 82.5176 36.0003 83.773 37.673L93.8267 51.0689" stroke="#3A3640" stroke-width="4" stroke-linejoin="round"/>
<path d="M7.82666 79.0762L7.85626 87.0688C7.86016 88.1311 8.28486 89.1487 9.03734 89.8984C9.78982 90.6482 10.8088 91.0688 11.871 91.0688H17.8445C18.3689 91.0688 18.8882 90.9654 19.3725 90.7642C19.8568 90.5629 20.2966 90.2682 20.6667 89.8965C21.0367 89.5248 21.3297 89.0833 21.5288 88.5981C21.7279 88.1129 21.8292 87.5933 21.8268 87.0688L21.8004 81.0586" stroke="#3A3640" stroke-width="4" stroke-linejoin="round"/>
<path d="M33.8267 61.0688L55.8267 63.0688L77.8267 61.0688" stroke="#3A3640" stroke-width="4" stroke-linecap="round" stroke-linejoin="round"/>
<path d="M99.8267 59.0688L97.8267 69.0688L87.8267 71.0688L89.8267 61.0688L99.8267 59.0688Z" stroke="#3A3640" stroke-width="4" stroke-linecap="round" stroke-linejoin="round"/>
<path d="M103.827 79.0762L103.797 87.0688C103.793 88.1311 103.368 89.1487 102.616 89.8984C101.863 90.6482 100.845 91.0688 99.7823 91.0688H93.8089C93.2844 91.0688 92.7651 90.9654 92.2808 90.7642C91.7965 90.5629 91.3567 90.2682 90.9866 89.8965C90.6166 89.5248 90.3237 89.0833 90.1246 88.5981C89.9255 88.1129 89.8242 87.5933 89.8265 87.0688L89.8529 81.0586" stroke="#3A3640" stroke-width="4" stroke-linejoin="round"/>
</svg>
