<svg width="129" height="128" viewBox="0 0 129 128" fill="none" xmlns="http://www.w3.org/2000/svg">
<path d="M103.931 59.578C103.931 72.7268 98.7078 85.3369 89.4102 94.6345C80.1125 103.932 67.5021 109.156 54.3532 109.156C41.2043 109.156 28.594 103.932 19.2963 94.6345C9.99866 85.3369 4.77527 72.7268 4.77527 59.578C4.77527 46.4291 9.99866 33.8186 19.2963 24.5209C28.594 15.2232 41.2043 10 54.3532 10C67.5021 10 80.1125 15.2232 89.4102 24.5209C98.7078 33.8186 103.931 46.4291 103.931 59.578Z" fill="#FFBBEC"/>
<path d="M25.9291 78.3146L40.3786 76.5037C44.6425 75.9691 48.9642 76.8361 52.695 78.9744L65.3384 86.2211H80.3987C81.9855 86.2211 83.5084 86.848 84.6372 87.9665C85.766 89.0851 86.4099 90.6049 86.4292 92.1963L86.4492 93.8356C86.4587 94.6169 86.3134 95.3925 86.0219 96.117C85.7304 96.8416 85.2984 97.5008 84.7509 98.0566C84.2035 98.6124 83.5514 99.0539 82.8327 99.355C82.1139 99.6562 81.3427 99.8113 80.5637 99.8113H57.6215" stroke="#3A3640" stroke-width="4.0063"/>
<path d="M25.9291 107.302L57.5801 114.772C66.0227 116.764 74.8834 115.931 82.809 112.397L112.187 99.3015C115.291 97.917 116.615 94.2153 115.096 91.1681H115.08C113.697 88.3846 110.418 87.1297 107.538 88.2827L86.34 95.7809" stroke="#3A3640" stroke-width="4.0063" stroke-linecap="round" stroke-linejoin="round"/>
<path d="M25.5702 94.8038V115.833H7.54138V73.7737H25.5702V84.2887" stroke="#3A3640" stroke-width="4.0063" stroke-linecap="round" stroke-linejoin="round"/>
<path d="M73.9294 47.0422C74.6664 48.8118 76.7409 49.7773 78.7247 49.2738C80.7084 48.7706 81.9536 46.9626 81.603 45.0948C81.2525 43.2263 79.4205 41.9082 77.3686 42.048L77.9392 42.0461C75.8872 42.1823 74.0553 40.8679 73.7048 38.9998C73.3543 37.1312 74.5996 35.3235 76.5832 34.8199C78.5668 34.3167 80.6413 35.282 81.3784 37.0524" stroke="#3A3640" stroke-width="4.0063"/>
<path d="M77.6542 36.0378V30.0278" stroke="#3A3640" stroke-width="4.0063"/>
<path d="M77.6542 55.0099V49" stroke="#3A3640" stroke-width="4.0063"/>
<path d="M93.2438 26.4574C97.3786 30.5921 99.7015 36.2001 99.7015 42.0474C99.7015 47.8946 97.3786 53.5022 93.2438 57.6368C89.1091 61.7715 83.5011 64.0947 77.6537 64.0947C71.8062 64.0947 66.1983 61.7715 62.0635 57.6368C57.9287 53.5022 55.6058 47.8946 55.6058 42.0474C55.6058 36.2001 57.9287 30.5921 62.0635 26.4574C66.1983 22.3228 71.8062 20 77.6537 20C83.5011 20 89.1091 22.3228 93.2438 26.4574Z" stroke="#3A3640" stroke-width="4.0063"/>
<path d="M61.6283 42.0474H65.6347" stroke="#3A3640" stroke-width="4.0063"/>
<path d="M89.6732 42.0474H93.6796" stroke="#3A3640" stroke-width="4.0063"/>
<path d="M116.793 18.5698C117.724 19.501 118.463 20.6065 118.967 21.8232C119.471 23.0399 119.73 24.3441 119.73 25.661C119.73 26.9779 119.471 28.2819 118.967 29.4986C118.463 30.7153 117.724 31.8206 116.793 32.7518C114.912 34.6324 112.362 35.689 109.702 35.689C107.042 35.689 104.492 34.6324 102.611 32.7518C101.68 31.8206 100.941 30.7153 100.437 29.4986C99.9331 28.2819 99.6737 26.9779 99.6737 25.661C99.6737 24.3441 99.9331 23.0399 100.437 21.8232C100.941 20.6065 101.68 19.501 102.611 18.5698C104.492 16.6892 107.042 15.6328 109.702 15.6328C112.362 15.6328 114.912 16.6892 116.793 18.5698Z" stroke="#3A3640" stroke-width="4.0063"/>
</svg>
