<svg width="186" height="50" viewBox="0 0 186 50" fill="none" xmlns="http://www.w3.org/2000/svg">
<g clip-path="url(#clip0_93_265)">
<path d="M44.1931 12.4573C34.7448 18.5523 35.304 9.79317 35.304 9.79317L30.1724 18.1915C26.1592 7.48984 20.1682 1.1887 20.1682 1.1887C19.609 5.6955 17.2222 4.92879 15.2412 4.41658C13.257 3.90437 7.56947 0.934204 7.56947 0.934204C7.56947 0.934204 14.7843 11.2267 4.77685 11.2267C4.77685 11.2267 11.736 18.8583 17.7303 22.0314L4.77685 20.8524C4.77685 20.8524 7.72284 24.0287 6.40322 25.4623C5.0804 26.899 0 30.7422 0 30.7422C0 30.7422 12.4454 31.2544 8.27881 39.5496C8.27881 39.5496 23.0088 29.2571 27.3798 42.1107L29.9296 38.9698L33.9076 37.4525L33.2718 37.2173C33.0258 36.1188 32.7414 35.0879 32.4251 34.1247L33.8693 34.6627C34.2048 35.4842 34.4924 36.3056 34.7608 37.1303L36.221 36.573C36.2082 36.1252 36.1922 35.613 36.1795 35.0139C35.9686 26.6381 47.2924 22.5018 47.2924 22.5018C39.2149 21.3227 44.1931 12.4637 44.1931 12.4637V12.4573ZM29.3928 27.5498C27.923 25.1917 26.6321 23.9321 26.4149 23.7291C27.8016 24.9984 29.0094 26.3675 30.0606 27.7978L29.3896 27.5498H29.3928ZM31.818 32.4206C31.3866 31.3156 30.9265 30.317 30.4632 29.4246L31.3962 29.7726C32.0289 30.7938 32.5912 31.8375 33.0929 32.8941L31.818 32.4206Z" fill="#46C1C1"/>
<path d="M40.7805 41.8239C40.0999 39.7461 39.2436 37.5813 38.1668 35.3907C36.9111 32.8393 35.3518 30.2557 33.4219 27.7495C30.8721 24.4346 27.6705 21.2518 23.6541 18.4395C21.8616 17.1831 19.9061 16.0041 17.7717 14.9185C17.7717 14.9185 20.1905 16.6484 22.7914 20.3885C25.0472 23.6292 27.4373 28.3776 28.5172 34.8238C28.9806 37.5878 29.201 40.6642 29.0636 44.0661L34.1536 45.9474C34.1536 45.9474 34.1536 45.9313 34.1536 45.9248C34.1568 45.4384 34.1536 44.9584 34.144 44.4881L35.601 45.0293L36.5756 45.3901C36.6395 45.9023 36.6938 46.4081 36.7385 46.9009L42.589 49.0658C42.2024 46.8784 41.6304 44.4204 40.7805 41.8239ZM29.3927 27.5497C27.9229 25.1916 26.6321 23.9321 26.4148 23.7291C27.8015 24.9984 29.0093 26.3675 30.0605 27.7978L29.3895 27.5497H29.3927ZM30.4599 29.4246L31.3929 29.7725C32.0256 30.7937 32.588 31.8375 33.0896 32.8941L31.8147 32.4206C31.3834 31.3156 30.9232 30.317 30.4599 29.4246ZM32.425 34.1215L33.8692 34.6595C34.3038 35.7258 34.6776 36.7953 35.0035 37.8584L33.2685 37.2141C33.0225 36.1156 32.7381 35.0847 32.4218 34.1215H32.425ZM34.0737 42.8741C33.9811 41.4374 33.8117 40.0811 33.5881 38.8119L35.47 39.511C35.8407 40.9413 36.1251 42.3555 36.3423 43.7182L34.0737 42.8741Z" fill="#3A3642"/>
<path d="M59.8306 19.4221C59.8306 14.5222 63.4667 10.8208 68.2596 10.8208C72.2312 10.8208 75.4009 13.472 76.1581 17.3764H72.6178C71.95 15.4339 70.3173 14.2194 68.2596 14.2194C65.4957 14.2194 63.4092 16.4648 63.4092 19.4253C63.4092 22.3858 65.4957 24.5925 68.2596 24.5925C70.4067 24.5925 72.0619 23.2846 72.6498 21.2003H76.2092C75.4712 25.269 72.3015 27.9911 68.2596 27.9911C63.4667 27.9911 59.8306 24.2864 59.8306 19.4253V19.4221Z" fill="#3A3642"/>
<path d="M87.9167 24.5118H81.4208L80.2993 27.6334H76.5513L82.9481 11.175H86.2839L92.8884 27.6334H89.0542L87.9135 24.5118H87.9167ZM82.5231 21.4096H86.8079L84.6543 15.524L82.5231 21.4096Z" fill="#3A3642"/>
<path d="M100.761 22.0152H98.4958V27.6334H94.9651V11.175H101.554C104.822 11.175 107.26 13.4462 107.26 16.6193C107.26 18.7712 106.091 20.5301 104.286 21.4096L107.896 27.6334H103.95L100.761 22.0152ZM98.4958 18.7261H101.32C102.797 18.7261 103.682 17.8305 103.682 16.5967C103.682 15.3629 102.8 14.4641 101.32 14.4641H98.4958V18.7261Z" fill="#3A3642"/>
<path d="M109.468 22.2987H113.028C113.028 23.8901 114.331 24.6568 115.776 24.6568C117.105 24.6568 118.405 23.9481 118.405 22.7208C118.405 21.4934 116.916 21.0939 115.146 20.6784C112.686 20.0663 109.695 19.3447 109.695 15.8011C109.695 12.6441 112.002 10.8658 115.616 10.8658C119.23 10.8658 121.501 12.8857 121.501 16.1651H118.012C118.012 14.7477 116.852 14.0841 115.533 14.0841C114.389 14.0841 113.229 14.5737 113.229 15.6497C113.229 16.8094 114.648 17.1573 116.376 17.5761C118.865 18.2107 121.99 18.9935 121.99 22.6821C121.99 26.3707 119.182 27.962 115.801 27.962C112.053 27.962 109.471 25.8391 109.471 22.302L109.468 22.2987Z" fill="#3A3642"/>
<path d="M149.686 11.175L144.651 27.6334H141.51L137.864 18.4072L134.324 27.6334H131.183L126.032 11.175H129.78L132.985 22.1086L137.273 11.3393H138.465L142.868 22.1054L146.002 11.175H149.69H149.686Z" fill="#3A3642"/>
<path d="M151.895 11.175H155.425V27.6334H151.895V11.175Z" fill="#3A3642"/>
<path d="M170.424 14.4803H165.886V27.6335H162.356V14.4803H157.815V11.1783H170.424V14.4803Z" fill="#3A3642"/>
<path d="M186 11.175V27.6334H182.47V20.8297H176.325V27.6334H172.794V11.175H176.325V17.5148H182.47V11.175H186Z" fill="#3A3642"/>
<path d="M59.8306 39.4595C59.8306 34.5597 63.4667 30.8583 68.2596 30.8583C72.2312 30.8583 75.4009 33.5095 76.1581 37.4139H72.6178C71.95 35.4714 70.3173 34.2569 68.2596 34.2569C65.4957 34.2569 63.4092 36.5022 63.4092 39.4628C63.4092 42.4233 65.4957 44.6299 68.2596 44.6299C70.4067 44.6299 72.0619 43.322 72.6498 41.2378H76.2092C75.4712 45.3064 72.3015 48.0286 68.2596 48.0286C63.4667 48.0286 59.8306 44.3239 59.8306 39.4628V39.4595Z" fill="#46C1C1"/>
<path d="M91.9617 31.2125V47.6709H88.431V40.8672H82.2866V47.6709H78.7559V31.2125H82.2866V37.5523H88.431V31.2125H91.9617Z" fill="#46C1C1"/>
<path d="M105.506 44.3657V47.6709H95.7097V31.2125H99.2404V44.3657H105.506Z" fill="#46C1C1"/>
<path d="M106.315 39.44C106.315 34.5531 110.044 30.8517 115.025 30.8517C120.006 30.8517 123.697 34.5338 123.697 39.44C123.697 44.3463 119.987 48.0284 115.025 48.0284C110.063 48.0284 106.315 44.327 106.315 39.44ZM120.121 39.44C120.121 36.4538 117.936 34.2116 115.028 34.2116C112.12 34.2116 109.897 36.4763 109.897 39.44C109.897 42.4038 112.12 44.6684 115.028 44.6684C117.936 44.6684 120.121 42.4263 120.121 39.44Z" fill="#46C1C1"/>
<path d="M136.532 44.3561V47.6677H126.473V31.2094H136.273V34.4984H130.004V37.7489H135.666V40.9735H130.004V44.3561H136.528H136.532Z" fill="#46C1C1"/>
</g>
<defs>
<clipPath id="clip0_93_265">
<rect width="186" height="48.1316" fill="white" transform="translate(0 0.934204)"/>
</clipPath>
</defs>
</svg>
