<svg width="48" height="49" viewBox="0 0 48 49" fill="none" xmlns="http://www.w3.org/2000/svg">
<path d="M44.1931 11.7681C34.7448 17.8631 35.304 9.10397 35.304 9.10397L30.1724 17.5023C26.1592 6.80064 20.1682 0.499497 20.1682 0.499497C19.609 5.0063 17.2222 4.23959 15.2412 3.72738C13.257 3.21517 7.56947 0.245003 7.56947 0.245003C7.56947 0.245003 14.7843 10.5375 4.77685 10.5375C4.77685 10.5375 11.736 18.1691 17.7303 21.3422L4.77685 20.1632C4.77685 20.1632 7.72284 23.3395 6.40322 24.7731C5.0804 26.2098 0 30.053 0 30.053C0 30.053 12.4454 30.5652 8.27881 38.8604C8.27881 38.8604 23.0088 28.5679 27.3798 41.4215L29.9296 38.2806L33.9076 36.7633L33.2718 36.5281C33.0258 35.4296 32.7414 34.3987 32.4251 33.4355L33.8693 33.9735C34.2048 34.795 34.4924 35.6164 34.7608 36.4411L36.221 35.8838C36.2082 35.436 36.1922 34.9238 36.1795 34.3246C35.9686 25.9489 47.2924 21.8126 47.2924 21.8126C39.2149 20.6335 44.1931 11.7745 44.1931 11.7745V11.7681ZM29.3928 26.8606C27.923 24.5025 26.6321 23.2429 26.4149 23.0399C27.8016 24.3092 29.0094 25.6783 30.0606 27.1086L29.3896 26.8606H29.3928ZM31.818 31.7314C31.3866 30.6264 30.9265 29.6278 30.4632 28.7354L31.3962 29.0834C32.0289 30.1046 32.5912 31.1483 33.0929 32.2049L31.818 31.7314Z" fill="#46C1C1"/>
<path d="M40.7805 41.1347C40.0999 39.0569 39.2436 36.8921 38.1668 34.7015C36.9111 32.1501 35.3518 29.5665 33.4219 27.0603C30.8721 23.7454 27.6705 20.5626 23.6541 17.7503C21.8616 16.4939 19.9061 15.3149 17.7717 14.2292C17.7717 14.2292 20.1905 15.9592 22.7914 19.6993C25.0472 22.94 27.4373 27.6884 28.5172 34.1345C28.9806 36.8985 29.201 39.975 29.0636 43.3769L34.1536 45.2582C34.1536 45.2582 34.1536 45.2421 34.1536 45.2356C34.1568 44.7492 34.1536 44.2692 34.144 43.7989L35.601 44.3401L36.5756 44.7009C36.6395 45.2131 36.6938 45.7189 36.7385 46.2117L42.589 48.3765C42.2024 46.1892 41.6304 43.7312 40.7805 41.1347ZM29.3927 26.8605C27.9229 24.5024 26.6321 23.2428 26.4148 23.0399C27.8015 24.3091 29.0093 25.6783 30.0605 27.1086L29.3895 26.8605H29.3927ZM30.4599 28.7354L31.3929 29.0833C32.0256 30.1045 32.588 31.1483 33.0896 32.2049L31.8147 31.7313C31.3834 30.6264 30.9232 29.6277 30.4599 28.7354ZM32.425 33.4323L33.8692 33.9703C34.3038 35.0365 34.6776 36.1061 35.0035 37.1691L33.2685 36.5249C33.0225 35.4263 32.7381 34.3955 32.4218 33.4323H32.425ZM34.0737 42.1849C33.9811 40.7482 33.8117 39.3919 33.5881 38.1227L35.47 38.8217C35.8407 40.2521 36.1251 41.6663 36.3423 43.0289L34.0737 42.1849Z" fill="#3A3642"/>
</svg>
