<svg width="112" height="100" viewBox="0 0 112 100" fill="none" xmlns="http://www.w3.org/2000/svg">
<path d="M105.919 50.3108C105.919 63.439 100.704 76.0297 91.4209 85.3127C82.1378 94.5958 69.5472 99.8108 56.4189 99.8108C43.2907 99.8108 30.7005 94.5958 21.4175 85.3127C12.1344 76.0297 6.91895 63.439 6.91895 50.3108C6.91895 37.1826 12.1344 24.5919 21.4175 15.3088C30.7005 6.02579 43.2907 0.810791 56.4189 0.810791C69.5472 0.810791 82.1378 6.02579 91.4209 15.3088C100.704 24.5919 105.919 37.1826 105.919 50.3108Z" fill="#C1FFFD"/>
<path d="M73 72.3113H7.30769C4.36723 72.3113 2 69.9501 2 67.0173V17.6052C2 14.6724 4.36723 12.3113 7.30769 12.3113H88.6923C91.6328 12.3113 94 14.6724 94 17.6052L94 42.3113" stroke="#3A3640" stroke-width="4" stroke-linejoin="round"/>
<path d="M2 24.3113H94" stroke="#3A3640" stroke-width="4"/>
<path d="M94 36.3113H2" stroke="#3A3640" stroke-width="4"/>
<path d="M72 60.3113H66V48.3113H78" stroke="#3A3640" stroke-width="4" stroke-linejoin="round"/>
<path d="M18 60.3113H38" stroke="#3A3640" stroke-width="4"/>
<path d="M109.535 54.9778C103.662 54.9778 98.0465 52.5645 93.9976 48.3113C89.8406 52.5821 84.3588 54.9426 78.466 54.9778C74.7623 83.1262 93.9985 88.3113 93.9985 88.3113C93.9985 88.3113 113.235 83.1262 109.535 54.9778Z" stroke="#3A3640" stroke-width="4" stroke-linejoin="round"/>
</svg>
