<svg width="127" height="100" viewBox="0 0 127 100" fill="none" xmlns="http://www.w3.org/2000/svg">
<path d="M126.171 50.3108C126.171 63.439 120.956 76.0297 111.673 85.3127C102.39 94.5958 89.7989 99.8108 76.6707 99.8108C63.5424 99.8108 50.9518 94.5958 41.6687 85.3127C32.3857 76.0297 27.1707 63.439 27.1707 50.3108C27.1707 37.1826 32.3857 24.5919 41.6687 15.3088C50.9518 6.02579 63.5424 0.810791 76.6707 0.810791C89.7989 0.810791 102.39 6.02579 111.673 15.3088C120.956 24.5919 126.171 37.1826 126.171 50.3108Z" fill="#C1FFFD"/>
<path d="M3.5869 64.4734C2.87208 63.7379 2.47869 62.7484 2.49331 61.7229L2.49332 41.0364C2.49332 39.9755 2.91475 38.9584 3.66489 38.2083L5.15298 36.72C5.57193 36.3011 6.0787 35.9807 6.63668 35.7815C7.19466 35.5823 7.78991 35.5096 8.37943 35.5686L26.4933 37.3796L54.4933 35.3796L82.4933 37.3796L101.342 35.4949C102.094 35.4196 102.852 35.5591 103.529 35.8972L104.282 36.2732C104.947 36.6054 105.505 37.1159 105.896 37.7478C106.286 38.3797 106.493 39.108 106.493 39.8508V61.7219C106.493 62.7828 106.072 63.8004 105.322 64.5505C104.749 65.1066 104.018 65.4698 103.229 65.5896L92.4933 67.3792H16.4933L5.75773 65.5896C4.93538 65.4525 4.1764 65.0629 3.5869 64.4734Z" stroke="#3A3640" stroke-width="4" stroke-linecap="round" stroke-linejoin="round"/>
<path d="M32.4934 57.3796L54.4934 59.3796L76.4934 57.3796" stroke="#3A3640" stroke-width="4" stroke-linecap="round" stroke-linejoin="round"/>
<path d="M10.4934 45.3796L12.4934 55.3796L22.4934 57.3796L20.4934 47.3796L10.4934 45.3796Z" stroke="#3A3640" stroke-width="4" stroke-linecap="round" stroke-linejoin="round"/>
<path d="M16.4934 37.3797L26.5471 23.9837C27.8025 22.3111 29.663 21.1969 31.7301 20.8793L53.2779 17.5667C54.0835 17.4429 54.9033 17.4429 55.7089 17.5667L77.2568 20.8793C79.3238 21.1969 81.1843 22.3111 82.4397 23.9837L92.4934 37.3797" stroke="#3A3640" stroke-width="4" stroke-linejoin="round"/>
<path d="M6.49341 65.387L6.52301 73.3796C6.52691 74.4419 6.9516 75.4595 7.70409 76.2092C8.45657 76.959 9.47551 77.3796 10.5377 77.3796H16.5112C17.0357 77.3796 17.555 77.2762 18.0393 77.075C18.5236 76.8737 18.9634 76.5789 19.3334 76.2073C19.7034 75.8356 19.9964 75.3941 20.1955 74.9089C20.3946 74.4237 20.4959 73.9041 20.4936 73.3796L20.4672 67.3694" stroke="#3A3640" stroke-width="4" stroke-linejoin="round"/>
<path d="M32.4934 47.3796L54.4934 49.3796L76.4934 47.3796" stroke="#3A3640" stroke-width="4" stroke-linecap="round" stroke-linejoin="round"/>
<path d="M98.4934 45.3796L96.4934 55.3796L86.4934 57.3796L88.4934 47.3796L98.4934 45.3796Z" stroke="#3A3640" stroke-width="4" stroke-linecap="round" stroke-linejoin="round"/>
<path d="M102.493 65.387L102.464 73.3796C102.46 74.4419 102.035 75.4595 101.283 76.2092C100.53 76.959 99.5113 77.3796 98.4491 77.3796H92.4756C91.9511 77.3796 91.4319 77.2762 90.9475 77.075C90.4632 76.8737 90.0234 76.5789 89.6534 76.2073C89.2834 75.8356 88.9904 75.3941 88.7913 74.9089C88.5922 74.4237 88.4909 73.9041 88.4932 73.3796L88.5196 67.3694" stroke="#3A3640" stroke-width="4" stroke-linejoin="round"/>
</svg>
