<svg width="118" height="109" viewBox="0 0 118 109" fill="none" xmlns="http://www.w3.org/2000/svg">
<path d="M99.2643 49.8887C99.2643 63.0376 94.041 75.6477 84.7433 84.9453C75.4456 94.243 62.8352 99.4667 49.6864 99.4667C36.5375 99.4667 23.9271 94.243 14.6295 84.9453C5.33179 75.6477 0.108398 63.0376 0.108398 49.8887C0.108398 36.7399 5.33179 24.1293 14.6295 14.8317C23.9271 5.534 36.5375 0.310791 49.6864 0.310791C62.8352 0.310791 75.4456 5.534 84.7433 14.8317C94.041 24.1293 99.2643 36.7399 99.2643 49.8887Z" fill="#C1FFFD"/>
<path d="M21.2622 68.6254L35.7118 66.8145C39.9756 66.2799 44.2973 67.1468 48.0282 69.2852L60.6715 76.5319H75.7319C77.3186 76.5319 78.8415 77.1588 79.9703 78.2773C81.0991 79.3959 81.743 80.9157 81.7623 82.5071L81.7823 84.1464C81.7918 84.9277 81.6466 85.7033 81.355 86.4278C81.0635 87.1524 80.6315 87.8116 80.084 88.3674C79.5366 88.9232 78.8846 89.3647 78.1658 89.6658C77.447 89.967 76.6758 90.1221 75.8968 90.1221H52.9546" stroke="#3A3640" stroke-width="4.0063"/>
<path d="M21.2622 97.6127L52.9133 105.082C61.3558 107.075 70.2165 106.242 78.1421 102.708L107.52 89.6123C110.624 88.2277 111.948 84.5261 110.429 81.4789H110.413C109.03 78.6954 105.751 77.4405 102.871 78.5935L81.6731 86.0917" stroke="#3A3640" stroke-width="4.0063" stroke-linecap="round" stroke-linejoin="round"/>
<path d="M20.9033 85.1146V106.144H2.87451V64.0845H20.9033V74.5995" stroke="#3A3640" stroke-width="4.0063" stroke-linecap="round" stroke-linejoin="round"/>
<path d="M69.2626 37.353C69.9995 39.1226 72.0741 40.0881 74.0578 39.5845C76.0415 39.0814 77.2868 37.2733 76.9362 35.4056C76.5856 33.5371 74.7536 32.219 72.7017 32.3588L73.2724 32.3569C71.2203 32.4931 69.3884 31.1787 69.0379 29.3106C68.6874 27.442 69.9327 25.6343 71.9163 25.1307C73.9 24.6275 75.9744 25.5928 76.7115 27.3632" stroke="#3A3640" stroke-width="4.0063"/>
<path d="M72.9873 26.3486V20.3386" stroke="#3A3640" stroke-width="4.0063"/>
<path d="M72.9873 45.3207V39.3108" stroke="#3A3640" stroke-width="4.0063"/>
<path d="M88.577 16.7682C92.7117 20.9029 95.0346 26.5109 95.0346 32.3582C95.0346 38.2054 92.7117 43.813 88.577 47.9476C84.4422 52.0823 78.8342 54.4055 72.9868 54.4055C67.1393 54.4055 61.5314 52.0823 57.3966 47.9476C53.2619 43.813 50.939 38.2054 50.939 32.3582C50.939 26.5109 53.2619 20.9029 57.3966 16.7682C61.5314 12.6336 67.1393 10.3108 72.9868 10.3108C78.8342 10.3108 84.4422 12.6336 88.577 16.7682Z" stroke="#3A3640" stroke-width="4.0063"/>
<path d="M56.9614 32.3582H60.9678" stroke="#3A3640" stroke-width="4.0063"/>
<path d="M85.0063 32.3582H89.0128" stroke="#3A3640" stroke-width="4.0063"/>
<path d="M112.126 8.88059C113.057 9.81178 113.796 10.9173 114.3 12.134C114.804 13.3507 115.064 14.6549 115.064 15.9718C115.064 17.2887 114.804 18.5927 114.3 19.8094C113.796 21.0261 113.057 22.1314 112.126 23.0626C110.246 24.9432 107.695 25.9998 105.035 25.9998C102.376 25.9998 99.8248 24.9432 97.9441 23.0626C97.0129 22.1314 96.2742 21.0261 95.7702 19.8094C95.2662 18.5927 95.0068 17.2887 95.0068 15.9718C95.0068 14.6549 95.2662 13.3507 95.7702 12.134C96.2742 10.9173 97.0129 9.81178 97.9441 8.88059C99.8248 6.99999 102.376 5.9436 105.035 5.9436C107.695 5.9436 110.246 6.99999 112.126 8.88059Z" stroke="#3A3640" stroke-width="4.0063"/>
</svg>
